<?xml version="1.0" encoding="UTF-8"?>
    <svg xmlns="http://www.w3.org/2000/svg" width="514" height="577" viewBox="0 0 514 577"><defs><linearGradient id="d" x1="362.27" y1="179.7" x2="270.05" y2="431.33" gradientUnits="userSpaceOnUse"><stop offset="0" stop-color="#e7c20e"/><stop offset="1" stop-color="#b88304"/></linearGradient><linearGradient id="e" x1="308.36" y1="141.38" x2="251.35" y2="382.74" gradientUnits="userSpaceOnUse"><stop offset="0" stop-color="#48a4bc"/><stop offset=".74" stop-color="#4b8095"/></linearGradient><linearGradient id="f" x1="165.19" y1="171.26" x2="218.21" y2="316.91" gradientUnits="userSpaceOnUse"><stop offset="0" stop-color="#49adc4"/><stop offset="1" stop-color="#477f93"/></linearGradient></defs><path id="b" d="M485.17,543.67c-21.6,23.64-47.17,31.09-57.03,33.42l-350.46-1.19c-7.74-1.04-30.85-5.15-51.02-24.71-21.32-20.67-25.64-45.28-26.66-52.8V129.46c.9-6.53,4.45-26.08,21.07-43.18,16.88-17.37,36.72-21.36,43.18-22.38h375.71c6.5.7,30,4.02,49.47,24.1,18.45,19.03,21.63,41.12,22.34,47.86l.23,355.45c-2.13,10.07-8.21,31.99-26.83,52.37Z" style="fill:#014a77; stroke-width:0px;"/><text transform="translate(118.2 526.28) rotate(-.31)" style="fill:#fff; font-family:RobotoCondensed-Regular, &apos;Roboto Condensed&apos;; font-size:28px; font-variation-settings:&apos;wght&apos; 400;"><tspan x="0" y="0">www.mouseyazilim.com</tspan></text><text transform="translate(70.03 494.53)" style="fill:#fff; font-family:BebasNeueBold, &apos;Bebas Neue&apos;; font-size:80px;"><tspan x="0" y="0">Mouse </tspan><tspan x="178.56" y="0" style="letter-spacing:-.05em;">Y</tspan><tspan x="206.32" y="0">AZILIM</tspan></text><g id="c"><path d="M428.75,334c-1.27,2.63-3.36,6.67-5,9-.55.79-3.37,3.77-4.5,5-3.92,4.27-8.27,7.96-13.25,11-11.09,6.76-85.57,39.66-99.5,44.5-28.52,9.91-55.52,12.03-85.5,8.5-5.56-.65-51.08-9.73-53.5-11-3.52-1.85-4.72-9.93-4.75-13.5,48.1,15.25,106.26,15.91,143-23.75,29.4-31.73,61.23-122.59,96.25-152.25,9.27-7.85,21.05-12.3,24.75-18,13.05,16.61,17.28,63.41,16,84.25-.72,11.69-4.29,25.82-7,37.5-1.35,5.77-4.74,10.88-7,16-.06.13.06,2.63,0,2.75Z" style="fill:url(#d); stroke-width:0px;"/><path d="M426.75,193.5c-3.7,5.7-15.48,10.15-24.75,18-35.02,29.66-66.85,120.52-96.25,152.25-36.74,39.66-94.9,39-143,23.75-.02-2.1-.14-3.61,1-5.5,35.74,9.56,73.6,14.69,108.25-1.5,4.22-1.97,21.61-11.4,19.25-14.5,23.75-19.86,46.18-70.6,63-99.25,14.89-25.36,28.53-50.87,53.25-67.75,8.28-5.65,14.96-4.61,9.75-13,4.35.92,6.97,4.28,9.5,7.5Z" style="fill:#f0d71f; stroke-width:0px;"/><path d="M225.75,143.5c-6.69,1.98-20.21,7.81-27,11-34.7,14.75-65.8,37.52-90.5,66-.15.16-.32.31-.5.5-8.14,8.74-15.69,18.21-21,29l-.75-.5c-32.13,60.63,6.54,106.42,62.25,129-.2,2.06-.73,3.85-.5,6-33.6-12.21-63.36-36.86-76.5-70.75l-.5,3.25c-10.65-36.61,2.62-68.9,26.5-96.75,23.25-27.12,56.55-54.91,90.25-67.25,3.99-1.46,34.45-10.23,36.5-10.5.35-.05,1.66.51,1.75,1Z" style="fill:#f0d71f; stroke-width:0px;"/><path d="M147.75,384.5c.52,4.93,3.88,8.97,6.5,13h-.5c-23.91-9.19-48.54-23.02-64.5-43.5-.91-1.17-2.17-2.81-3-4-1.56-2.26-3.66-4.61-5-7-3.75-6.67-8.34-18.59-10.5-26l.5-3.25c13.14,33.89,42.9,58.54,76.5,70.75Z" style="fill:#c79009; stroke-width:0px;"/><path d="M163.75,382c.41-.68.55-1.51,1.25-2,42.06,10.79,90.52,15.88,126.25-14,2.36,3.1-15.03,12.53-19.25,14.5-34.65,16.19-72.51,11.06-108.25,1.5Z" style="fill:#e8b912; stroke-width:0px;"/><path d="M86.75,250c-2.29,4.66-3.95,9.55-5.5,14.5-2.39,7.65-4.67,15.4-5,23.5-.08,1.96-.09,4.04,0,6,1.21,26.83,24.47,55.45,46.75,69,11.9,7.24,25.14,10.85,26,12,.48.65-.65,2.49-.75,3.5-55.71-22.58-94.38-68.37-62.25-129l.75.5Z" style="fill:#e8b912; stroke-width:0px;"/><path d="M332.75,141.5c1.63.39,17.32,5.39,20.5,6.5,20.14,7,39.58,16.17,55.5,30.5l2.5,8.25c-29.67,12.75-45.06,42.28-61,68.5-14.34,23.59-41.76,77.06-57,94-37.02,41.16-98.18,27.9-145,14.75-.15-2.87-2.31-1.85-2.5-5.5-.2-3.88,9.1-46.84,11-56.25,18.19,5.94,35.16,4.85,47-11.5,4.05-5.59,19.26-32.04,28-45,5.78-8.57,28.79-39.11,30-41.5,6.8-13.47-4.59-20.14-17-20.25,5.65-3.53,35.21-23.03,39.25-23,.4,0,6.72,3.07,7.5,3,1.4-.13,20.41-13.86,24-14.5,5.25-.94,14.91,4.01,16.25-5.5.21-2.61-5.51-.28-3.5-3,1.06.22,4.28.45,4.5.5Z" style="fill:url(#e); stroke-width:0px;"/><path d="M264.25,154.5c-1.31,3.23-1.59,4.1-2.5,7.5-1.03,3.84.52,4.32-1.25,6-1.03.98-23.59,13.67-25,13.5-.39-.05-.83-1.65-7.25-2.5-10.58-1.4-18.39,3.93-26.25,10.5-9.07,7.57-56.43,65.12-61.25,74.75-10.73,21.43,8.76,29.88,9,33.5q-7.38,29.63-14.75,59.25c-35.24-13.59-64.38-52.66-53.75-91.5,5.26-16.97,15.5-30.87,26.5-44.5.18-.19.35-.34.5-.5,25.72-27.48,56.43-49.98,90.5-66,6.79-3.19,20.31-9.02,27-11,17.49-5.17,39.34-7.73,57.5-7-5.25,1.59-11.63,6.66-15,11-.08.1.08.39,0,.5-.1.13-.16-.7-2,2.5" style="fill:url(#f); stroke-width:0px;"/><path d="M417.25,186c-2.62-.21,1.24,4.87,1,5.75-.49,1.8-14.88,5.72-30,22-10.56,11.37-17.45,25.26-26,38-.39.58.24-4.06-8.5,10-17.84,28.72-39.91,79.83-64.25,100.75-40.68,34.96-95.61,23.39-142,7.5-1.81-1.46.87-3.7.75-6,46.82,13.15,107.98,26.41,145-14.75,15.24-16.94,42.66-70.41,57-94,15.94-26.22,31.33-55.75,61-68.5l-2.5-8.25c2.09,1.88,7.36,5.66,8.5,7.5Z" style="fill:#172536; stroke-width:0px;"/><path d="M328.25,141c-2.01,2.72,3.71.39,3.5,3-8.81-2.44-19.89-1.82-29-.5-.29-.67-3.89-4.99-4.5-5.5v-.5c2.12.19,9.52-.16,14.25.5,5.29.73,10.53,1.9,15.75,3Z" style="fill:#4fa9c1; stroke-width:0px;"/><path d="M198.75,154.5c-34.07,16.02-64.78,38.52-90.5,66,24.7-28.48,55.8-51.25,90.5-66Z" style="fill:#546e42; stroke-width:0px;"/><path d="M81.25,265.5v-1c1.55-4.95,3.21-9.84,5.5-14.5,5.31-10.79,12.86-20.26,21-29-11,13.63-21.24,27.53-26.5,44.5Z" style="fill:#546e42; stroke-width:0px;"/><path d="M417.25,186c5.21,8.39-1.47,7.35-9.75,13-24.72,16.88-38.36,42.39-53.25,67.75-16.82,28.65-39.25,79.39-63,99.25-35.73,29.88-84.19,24.79-126.25,14-.7.49-.84,1.32-1.25,2-1.14,1.89-1.02,3.4-1,5.5.03,3.57,1.23,11.65,4.75,13.5,2.42,1.27,47.94,10.35,53.5,11,29.98,3.53,56.98,1.41,85.5-8.5,13.93-4.84,88.41-37.74,99.5-44.5,4.98-3.04,9.33-6.73,13.25-11-2.49,7.35-12.96,17.2-19.75,22.5-20.44,15.94-90.36,49.1-115.5,54-43.31,8.44-101.81-1.26-142-19.5-23.98-10.88-42.43-26.13-52.75-51,15.96,20.48,40.59,34.31,64.5,43.5,1.75.67,6.86,4.49,7,1.25-3.69-5.43-3.22-13.88-10.75-14.75-5.09,1.01,7.04,13.5,4.25,13.5-2.62-4.03-5.98-8.07-6.5-13-.23-2.15.3-3.94.5-6,.1-1.01,1.23-2.85.75-3.5-.86-1.15-14.1-4.76-26-12-22.28-13.55-45.54-42.17-46.75-69,1.68-.44.99,4.5,1.5,7,.31,1.54,1.41.34,1.5.75.34,1.63-.8,2.85-.5,4,5.66,21.66,29.75,50.18,50.25,59.25.62.28.78-2.76,12,4.5,2.08-.41,2.09-10.67,4.75-11,.19,3.65,2.35,2.63,2.5,5.5.12,2.3-2.56,4.54-.75,6,46.39,15.89,101.32,27.46,142-7.5,24.34-20.92,46.41-72.03,64.25-100.75,8.74-14.06,8.11-9.42,8.5-10,8.55-12.74,15.44-26.63,26-38,15.12-16.28,29.51-20.2,30-22,.24-.88-3.62-5.96-1-5.75Z" style="fill:#141823; stroke-width:0px;"/><path d="M153.75,397.5h.5c2.79,0-9.34-12.49-4.25-13.5,7.53.87,7.06,9.32,10.75,14.75-.14,3.24-5.25-.58-7-1.25Z" style="fill:#172536; stroke-width:0px;"/><path d="M150.5,376c3.63,1.72,10.51,1.58,9.25,6.25-.59,1.34-16.43-1.27-9.25-6.25Z" style="fill:#163458; stroke-width:0px;"/><path d="M331.75,144c-1.34,9.51-11,4.56-16.25,5.5-3.59.64-22.6,14.37-24,14.5-.78.07-7.1-3-7.5-3-4.04-.03-33.6,19.47-39.25,23-5.39,3.36-4.92,3.91-5.25,4-.86.25-16.2-2.55-11.25-9,6.42.85,6.86,2.45,7.25,2.5,1.41.17,23.97-12.52,25-13.5,1.77-1.68.22-2.16,1.25-6,15.81,4.11,20.96-13.2,30.25-3.5l1.25-.75c-6.65-6.7-15.68-9.62-25-9.75.08-.11-.08-.4,0-.5,7.36-.67,14.02,1.85,20.5,5,1.14,1.36,2.52,2.11,4,3,.11.07,1.14,1.67,1.75,2,8.05-5.3,11.54-4.01,9.25-10.5-.25-.7-.48-.47-.5-.5-.13-.82-.37-2.69-.5-3,9.11-1.32,20.19-1.94,29,.5Z" style="fill:#162026; stroke-width:0px;"/><path d="M268.25,148c9.32.13,18.35,3.05,25,9.75l-1.25.75c-9.29-9.7-14.44,7.61-30.25,3.5.91-3.4,1.19-4.27,2.5-7.5.57-1.4,1.25-2.69,2-4,1.84-3.2,1.9-2.37,2-2.5Z" style="fill:#25374b; stroke-width:0px;"/><path d="M298.25,137.5c1.08.77,3.45,2.68,4.5,6,.35,1.12.48,2.15.5,3-.22-.45-1.58-2.95-1.75-3-4.87,2.36-10.24,3.99-14.25,7.75,1.05.25,1.03.69,1.5,1.25-6.48-3.15-13.14-5.67-20.5-5,1.01-1.6,5.69-8.67,15-11,7.06-1.77,12.87.17,15,1Z" style="fill:#f0d71f; stroke-width:0px;"/><path d="M303.75,147q-5.5,4.25-11,8.5c-.91-.57-1.64-1.03-2.13-1.33-1.24-.77-1.71-1.04-2.51-1.56-.84-.55-1.51-1.02-1.91-1.31,2.33-1.48,4.94-2.99,7.84-4.46,2.61-1.32,5.11-2.42,7.45-3.35.32.15.75.41,1.14.82.97,1.01,1.09,2.26,1.11,2.68Z" style="fill:#e8b912; stroke-width:0px;"/><path d="M292.75,155.5l11-8.5c2.29,6.49-1.2,5.2-9.25,10.5-.61-.33-1.64-1.93-1.75-2Z" style="fill:#e8b912; stroke-width:0px;"/><path d="M228.25,179c-4.95,6.45,10.39,9.25,11.25,9,.33-.09-.14-.64,5.25-4,12.41.11,23.8,6.78,17,20.25-1.21,2.39-24.22,32.93-30,41.5-8.74,12.96-23.95,39.41-28,45-11.84,16.35-28.81,17.44-47,11.5-1.9,9.41-11.2,52.37-11,56.25-2.66.33-2.67,10.59-4.75,11-11.22-7.26-11.38-4.22-12-4.5-20.5-9.07-44.59-37.59-50.25-59.25-.3-1.15.84-2.37.5-4-.09-.41-1.19.79-1.5-.75,4.83-2.11-1-10.08.5-21.25-1.25,1.98.06,7.74-2,8.25.33-8.1,2.61-15.85,5-23.5v1c-10.63,38.84,18.51,77.91,53.75,91.5q7.38-29.63,14.75-59.25c-.24-3.62-19.73-12.07-9-33.5,4.82-9.63,52.18-67.18,61.25-74.75,7.86-6.57,15.67-11.9,26.25-10.5Z" style="fill:#172536; stroke-width:0px;"/><path d="M77.75,301c-.51-2.5.18-7.44-1.5-7-.09-1.96-.08-4.04,0-6,2.06-.51.75-6.27,2-8.25-1.5,11.17,4.33,19.14-.5,21.25Z" style="fill:#252724; stroke-width:0px;"/><path d="M169.75,237.5c-2.51,6.9-6.49,15.02-9.5,22.5-.14.35-2.77,3.18-3.5,6.75-3.82,18.58,20.73,26.53,35.25,14.75,5.78-4.68,41.41-60.94,50.75-72.25,2.13-5.82,1.15-8.82-1.5-13.75-1.34-2.49-3.64-5.56-6-7,8.59.16,19.57,4.79,16.5,15.25-.68,2.32-24.21,33.91-28,39.5-6.09,8.98-24.42,38.17-27,41.5-18.38,23.77-55.18,5.49-48-16.5.71-2.18,17.46-25.29,21-30.75Z" style="fill:#f0d71f; stroke-width:0px;"/><path d="M143,268c2.53,0-3.22,10.57,11,23,3.24,2.83,8.9,3.92,5.5,6-10.54-5.37-21.77-16.37-16.5-29Z" style="fill:#25374b; stroke-width:0px;"/><path d="M247,187.5c17.14,4.66,13.22,18.29,7.75,11.25-.41-.53-.83-5.41-8.5-10l.75-1.25Z" style="fill:#25374b; stroke-width:0px;"/><path d="M238.75,207c-1.38,3.49-16.06,21.13-19,27.5-4.96,5.63-8.53,12.2-12.5,18.5-6.49,7.69-11.45,18.91-19,25.5-8.16.95-2.15-12.53,0-18.25,5.55-14.77,22.25-44.23,33.75-54.75,14.25-13.02,20.01-6.74,16.75,1.5Z" style="fill:#e8b912; stroke-width:0px;"/><path d="M196.25,273.5c-4.99,14.45-29.03,17.1-37.5,3.75-.27-2.53,1.37-.08,2.5.75,8.09,5.96,14.3,9.01,24,3,.17-.1,2.54-2.1,3-2.5,7.55-6.59,12.51-17.81,19-25.5-1.67,2.65-11.19,16.74-11.5,17.75-.26.85,1.26.56.5,2.75Z" style="fill:#25374b; stroke-width:0px;"/><path d="M235.25,188.5c2.36,1.44,4.66,4.51,6,7-15.01-7-38.01,29.51-44.5,41.25-3.26,5.91-14.75,30.56-15.5,35.75-7.2-3.07-15.09-4.84-21.5-9.5.17-1.01.44-1.98.5-3,3.01-7.48,6.99-15.6,9.5-22.5,9.42-14.5,18.91-34.36,33.25-44.5,8.6-6.08,22.59-10.38,32.25-4.5Z" style="fill:#e9e6df; stroke-width:0px;"/><path d="M241.25,195.5c2.65,4.94,3.63,7.93,1.5,13.75-9.34,11.31-44.97,67.57-50.75,72.25-14.52,11.78-39.07,3.83-35.25-14.75.73-3.57,3.36-6.4,3.5-6.75-.06,1.02-.33,1.99-.5,3-.94,5.76-1.77,9.77,1.5,15-1.13-.83-2.77-3.28-2.5-.75,8.47,13.35,32.51,10.7,37.5-3.75l2-2.25-1-.5c3.53-2.07,4.15-8.03,9-11-.72-1.71,1.54-3.47,3.5-6.75,10.15-15.28,20.81-30.62,31.75-45l-2.75-1c3.26-8.24-2.5-14.52-16.75-1.5-11.5,10.52-28.2,39.98-33.75,54.75-2.15,5.72-8.16,19.2,0,18.25-.46.4-2.83,2.4-3,2.5-3.17-2.69-4.62-4.2-4-8.5.75-5.19,12.24-29.84,15.5-35.75,6.49-11.74,29.49-48.25,44.5-41.25Z" style="fill:#172536; stroke-width:0px;"/><path d="M181.25,272.5c-.62,4.3.83,5.81,4,8.5-9.7,6.01-15.91,2.96-24-3-3.27-5.23-2.44-9.24-1.5-15,6.41,4.66,14.3,6.43,21.5,9.5Z" style="fill:#c8c9ca; stroke-width:0px;"/><path d="M209.75,253c3.55-5.92,6.97-12.28,10-18.5,2.94-6.37,17.62-24.01,19-27.5l2.75,1c-10.94,14.38-21.6,29.72-31.75,45Z" style="fill:#636066; stroke-width:0px;"/><path d="M209.75,253c-1.96,3.28-4.22,5.04-3.5,6.75-4.85,2.97-5.47,8.93-9,11l1,.5-2,2.25c.76-2.19-.76-1.9-.5-2.75.31-1.01,9.83-15.1,11.5-17.75,3.97-6.3,7.54-12.87,12.5-18.5-3.03,6.22-6.45,12.58-10,18.5Z" style="fill:#37405d; stroke-width:0px;"/></g></svg>